<svg width="80" height="80" viewBox="0 0 80 80" fill="none" xmlns="http://www.w3.org/2000/svg">
<circle cx="40" cy="40" r="40" fill="#DD3743"/>
<path d="M45.7547 25.7732C37.9537 25.7732 31.6286 32.1434 31.6286 40C31.6286 47.8566 37.9537 54.2268 45.7547 54.2268C53.5556 54.2268 59.8807 47.8566 59.8807 40C59.8807 32.1434 53.5556 25.7732 45.7547 25.7732ZM45.7547 43.5532C43.7869 43.5532 42.2267 41.9818 42.2267 40C42.2267 38.0182 43.7869 36.4468 45.7547 36.4468C47.7225 36.4468 49.2827 38.0182 49.2827 40C49.2827 41.9818 47.6381 43.5532 45.7547 43.5532ZM20.9463 40C20.9463 38.0182 22.5065 36.4468 24.4743 36.4468C26.4421 36.4468 28.0163 38.0182 28.0163 40C28.0163 41.9818 26.4561 43.5532 24.4883 43.5532C22.5205 43.5532 20.9463 41.9818 20.9463 40Z" fill="white"/>
</svg>
