<svg width="80" height="80" viewBox="0 0 80 80" fill="none" xmlns="http://www.w3.org/2000/svg">
<circle cx="40" cy="40" r="40" fill="#161412"/>
<path d="M46.7339 21.3977H41.4045C41.4045 21.3977 42.4303 44.0553 41.3622 48.2587C40.2941 52.4622 36.9836 53.2259 35.4619 53.0823C30.535 52.7378 29.5903 48.632 29.7339 46.6222C30.3196 42.5566 34.2458 41.5158 36.1357 41.5035V36.0532C28.9655 35.714 25.3965 41.1604 24.5084 43.9259C22.086 54.3422 30.0799 57.996 34.3796 58.5208C42.5673 59.4413 46.0676 52.3235 46.7944 48.6496C47.5211 44.9756 46.7944 31.9957 46.7944 31.9957C49.2168 36.2591 53.9 36.7597 55.9389 36.4771V30.1183C49.5922 29.6338 47.1578 24.1027 46.7339 21.3977Z" fill="white"/>
</svg>
