<svg width="80" height="80" viewBox="0 0 80 80" fill="none" xmlns="http://www.w3.org/2000/svg">
<circle cx="40" cy="40" r="40" fill="#DA1500"/>
<path d="M33.8281 45.8112L35.8954 45.3385C35.9385 45.3286 36.0116 45.3122 36.098 45.2843C36.669 45.133 37.1583 44.7684 37.4627 44.2675C37.7672 43.7666 37.8631 43.1684 37.7302 42.599L37.7219 42.5629C37.6536 42.2901 37.5342 42.0323 37.3699 41.8029C37.1384 41.5125 36.8519 41.2694 36.5264 41.0873C36.1431 40.8714 35.742 40.6881 35.3275 40.5391L33.0609 39.72C31.789 39.2523 30.5171 38.7976 29.2318 38.3528C28.3999 38.0606 27.6942 37.8029 27.0815 37.6142C26.9649 37.5823 26.8492 37.5472 26.7345 37.5091C25.9939 37.2859 25.4725 37.1923 25.0325 37.1891C24.7384 37.1782 24.4454 37.2309 24.174 37.3433C23.8904 37.4647 23.6358 37.6437 23.4268 37.8686C23.3231 37.985 23.2255 38.1066 23.1345 38.233C22.9576 38.5016 22.8117 38.789 22.6995 39.0898C22.2784 40.3192 22.0685 41.6096 22.0785 42.9076C22.0868 44.0795 22.1183 45.5847 22.7709 46.6056C22.9286 46.8682 23.1395 47.0947 23.3903 47.2703C23.8552 47.5871 24.3234 47.6298 24.8133 47.6643C25.5439 47.7152 26.2496 47.5395 26.9553 47.377L33.8231 45.8095L33.8281 45.8112ZM56.8922 34.9634C56.3279 33.7925 55.5691 32.7234 54.6472 31.8004C54.5281 31.6831 54.4005 31.5744 54.2653 31.4755C54.1405 31.3829 54.0108 31.2969 53.8768 31.2178C53.7388 31.143 53.5969 31.0757 53.4517 31.0159C53.165 30.9045 52.8578 30.8541 52.55 30.8681C52.2561 30.8846 51.9689 30.9666 51.7082 31.1029C51.3147 31.2965 50.8879 31.6084 50.32 32.1287C50.242 32.2059 50.144 32.2929 50.0543 32.3749C49.5877 32.8099 49.0663 33.3466 48.447 33.9703C47.4889 34.9273 46.5474 35.8891 45.6092 36.8591L43.9321 38.5793C43.6259 38.893 43.347 39.2318 43.0986 39.592C42.8858 39.8968 42.7352 40.2397 42.6552 40.6015C42.6103 40.8794 42.6171 41.1631 42.6751 41.4386L42.6834 41.4747C42.816 42.0435 43.1666 42.5393 43.6615 42.8577C44.1565 43.1761 44.7571 43.2922 45.3369 43.1817C45.4067 43.172 45.476 43.1588 45.5445 43.1423L54.4812 41.1004C55.1869 40.9396 55.9009 40.7919 56.5336 40.4275C56.9586 40.1862 57.3621 39.9449 57.6394 39.4591C57.7872 39.1915 57.8765 38.8962 57.9018 38.5924C58.0396 37.3877 57.4036 36.0204 56.8922 34.9634ZM40.8934 38.6778C41.541 37.8735 41.541 36.6753 41.5975 35.6938C41.7934 32.4192 41.9977 29.1447 42.1621 25.8685C42.2235 24.6277 42.358 23.4032 42.2833 22.1525C42.2218 21.1217 42.2152 19.9366 41.556 19.0897C40.3936 17.596 37.9129 17.7191 36.2208 17.9522C35.6989 18.0235 35.1807 18.1199 34.6683 18.2411C34.1535 18.3625 33.6421 18.4955 33.144 18.6547C31.52 19.18 29.2368 20.1451 28.8516 21.9949C28.6324 23.0405 29.1505 24.109 29.549 25.0643C30.0355 26.2198 30.6981 27.2621 31.3025 28.3503C32.9015 31.2243 34.5288 34.0819 36.1511 36.9412C36.6376 37.7947 37.164 38.8747 38.1022 39.3179C38.1653 39.3442 38.2284 39.3672 38.2931 39.3885C38.7132 39.5461 39.1732 39.5756 39.6099 39.4755L39.6879 39.4591C40.0931 39.3491 40.4584 39.1308 40.7456 38.8304C40.7988 38.7812 40.8469 38.7319 40.8951 38.6778H40.8934ZM40.118 47.4443C39.8652 47.0929 39.5065 46.8295 39.0931 46.6918C38.6798 46.5541 38.2329 46.5492 37.8166 46.6778C37.7186 46.7097 37.6231 46.7487 37.531 46.7943C37.3883 46.8663 37.2521 46.9503 37.1241 47.0455C36.7586 47.3302 36.4321 47.6607 36.1527 48.0287C36.0813 48.1189 36.0149 48.2388 35.9286 48.3175L34.4906 50.2708C33.677 51.3672 32.8716 52.4653 32.0763 53.5798C31.5549 54.3003 31.1065 54.9093 30.7495 55.446C30.6831 55.5478 30.6134 55.6594 30.5503 55.7513C30.1235 56.4013 29.8828 56.8773 29.7582 57.3008C29.6652 57.5821 29.6357 57.8802 29.6719 58.174C29.7117 58.4793 29.8163 58.7731 29.9774 59.0373C30.0637 59.1686 30.1567 59.2967 30.2564 59.4198C30.4716 59.6646 30.7138 59.8848 30.9787 60.0763C31.9716 60.7591 33.0576 61.2499 34.2 61.629C35.1515 61.9409 36.1395 62.128 37.1391 62.1838C37.3101 62.192 37.4811 62.1888 37.6505 62.174C37.8076 62.1595 37.9638 62.1376 38.1188 62.1083C38.2738 62.0727 38.4268 62.0288 38.5771 61.977C38.8692 61.8688 39.1352 61.701 39.3575 61.4846C39.5684 61.2762 39.7311 61.025 39.8324 60.7476C39.9984 60.3373 40.108 59.8186 40.1811 59.0472C40.1861 58.9372 40.2027 58.8059 40.2143 58.6861C40.2708 58.0459 40.2973 57.2909 40.3372 56.4079C40.4086 55.0472 40.4634 53.693 40.5065 52.3356L40.5995 49.9195C40.6211 49.3647 40.6028 48.7476 40.4468 48.1944C40.3781 47.9287 40.2672 47.6755 40.118 47.4443ZM56.3459 51.2244C56.047 50.8978 55.6219 50.5744 54.9511 50.1739C54.8548 50.1198 54.7402 50.0492 54.6356 49.9868C54.0777 49.6536 53.4052 49.3056 52.6198 48.8838C51.4126 48.2273 50.2055 47.5904 48.985 46.9568L46.8313 45.8276C46.7201 45.7948 46.6072 45.716 46.5009 45.6651C46.0868 45.456 45.647 45.301 45.1924 45.2039C45.0359 45.174 44.877 45.1575 44.7175 45.1546C44.6143 45.1541 44.5111 45.1601 44.4087 45.1727C43.9775 45.2385 43.5784 45.4372 43.2683 45.7405C42.9582 46.0438 42.7529 46.4362 42.6818 46.8616C42.6502 47.1325 42.6602 47.4066 42.7133 47.6725C42.8179 48.2404 43.0737 48.8001 43.3393 49.2909L44.4884 51.423C45.1293 52.6245 45.7769 53.8194 46.4411 55.011C46.8695 55.7874 47.2265 56.4522 47.5603 57.0037C47.6234 57.1071 47.6948 57.2187 47.7496 57.3155C48.1564 57.977 48.4819 58.3939 48.8123 58.6943C49.0324 58.9036 49.2966 59.0621 49.586 59.1586C49.8753 59.2551 50.1827 59.2871 50.4861 59.2523C50.6441 59.2333 50.8009 59.2059 50.956 59.1703C51.2736 59.0862 51.5806 58.9667 51.8709 58.8141C52.7449 58.3298 53.5506 57.7338 54.267 57.0414C55.1271 56.2043 55.8876 55.2917 56.4788 54.2478C56.5618 54.1001 56.6315 53.9474 56.6913 53.7882C56.747 53.6424 56.7952 53.494 56.8358 53.3434C56.8706 53.1891 56.8972 53.0348 56.9155 52.8789C56.9453 52.5724 56.9096 52.2632 56.8109 51.9712C56.7134 51.691 56.5546 51.4355 56.3459 51.2228V51.2244Z" fill="white"/>
</svg>
